<svg width="427" height="707" xmlns="http://www.w3.org/2000/svg" xmlns:xlink="http://www.w3.org/1999/xlink" overflow="hidden"><defs><clipPath id="clip0"><rect x="806" y="16" width="427" height="707"/></clipPath></defs><g clip-path="url(#clip0)" transform="translate(-806 -16)"><path d="M868 33.0002C868 29.1341 871.134 26 875 26L1225 26C1228.87 26 1232 29.1341 1232 33.0002L1232 60.9998C1232 64.8659 1228.87 68 1225 68L875 68C871.134 68 868 64.8659 868 60.9998Z" fill="#C9A8EA" fill-rule="evenodd"/><text font-family="Calibri,Calibri_MSFontService,sans-serif" font-weight="700" font-size="15" transform="translate(969.688 52)">Membaca<tspan font-size="15" x="63.8333" y="0">beberapa</tspan><tspan font-size="15" x="124.833" y="0">paper</tspan></text><path d="M868 118C868 114.134 871.134 111 875 111L1225 111C1228.87 111 1232 114.134 1232 118L1232 146C1232 149.866 1228.87 153 1225 153L875 153C871.134 153 868 149.866 868 146Z" fill="#FEA0CD" fill-rule="evenodd"/><text font-family="Calibri,Calibri_MSFontService,sans-serif" font-weight="700" font-size="15" transform="translate(993.354 137)">Merangkum<tspan font-size="15" x="77.5" y="0">paper</tspan></text><path d="M868 203C868 199.134 871.134 196 875 196L1225 196C1228.87 196 1232 199.134 1232 203L1232 231C1232 234.866 1228.87 238 1225 238L875 238C871.134 238 868 234.866 868 231Z" fill="#FF8B8B" fill-rule="evenodd"/><text font-family="Calibri,Calibri_MSFontService,sans-serif" font-weight="700" font-size="15" transform="translate(890.414 222)">Memilih topik paper yang akan dibuat prototypenya</text><path d="M868 284C868 280.134 871.134 277 875 277L1225 277C1228.87 277 1232 280.134 1232 284L1232 312C1232 315.866 1228.87 319 1225 319L875 319C871.134 319 868 315.866 868 312Z" fill="#F4B183" fill-rule="evenodd"/><text font-family="Calibri,Calibri_MSFontService,sans-serif" font-weight="700" font-size="15" transform="translate(946.247 303)">Membuat desain/algoritma paper</text><path d="M868 374.167C868 370.209 871.209 367 875.167 367L1224.83 367C1228.79 367 1232 370.209 1232 374.167L1232 402.833C1232 406.791 1228.79 410 1224.83 410L875.167 410C871.209 410 868 406.791 868 402.833Z" fill="#FFD966" fill-rule="evenodd"/><text font-family="Calibri,Calibri_MSFontService,sans-serif" font-weight="700" font-size="15" transform="translate(937.914 394)">Membuat<tspan font-size="15" x="63.5" y="0">prototype </tspan><tspan font-size="15" x="128" y="0">dalam</tspan><tspan font-size="15" x="169.167" y="0">Bahasa C</tspan></text><path d="M868 452C868 448.134 871.134 445 875 445L1225 445C1228.87 445 1232 448.134 1232 452L1232 480C1232 483.866 1228.87 487 1225 487L875 487C871.134 487 868 483.866 868 480Z" fill="#C5E0B4" fill-rule="evenodd"/><text font-family="Calibri,Calibri_MSFontService,sans-serif" font-weight="700" font-size="15" transform="translate(965.581 471)">Melakukan revisi prototype</text><path d="M868 547C868 543.134 871.134 540 875 540L1225 540C1228.87 540 1232 543.134 1232 547L1232 575C1232 578.866 1228.87 582 1225 582L875 582C871.134 582 868 578.866 868 575Z" fill="#BDD7EE" fill-rule="evenodd"/><text font-family="Calibri,Calibri_MSFontService,sans-serif" font-weight="700" font-size="15" transform="translate(989.914 566)">Finalisasi prototype</text><path d="M868 631C868 627.134 871.134 624 875 624L1225 624C1228.87 624 1232 627.134 1232 631L1232 659C1232 662.866 1228.87 666 1225 666L875 666C871.134 666 868 662.866 868 659Z" fill="#8497B0" fill-rule="evenodd"/><text font-family="Calibri,Calibri_MSFontService,sans-serif" font-weight="700" font-size="15" transform="translate(987.581 650)">Penyusunan laporan</text><path d="M808 675.264 824.25 675.264 824.25 17 856.75 17 856.75 675.264 873 675.264 840.5 720Z" stroke="#FFFFFF" stroke-width="2" stroke-miterlimit="8" fill="#A5A5A5" fill-rule="evenodd"/><rect x="825" y="34" width="30" height="12" fill="#C9A8EA"/><rect x="825" y="124" width="30" height="12" fill="#FEA0CD"/><rect x="825" y="207" width="30" height="12" fill="#FF8B8B"/><rect x="825" y="292" width="30" height="12" fill="#F4B183"/><rect x="825" y="377" width="30" height="12" fill="#FFD966"/><rect x="825" y="460" width="30" height="12" fill="#C5E0B4"/><rect x="825" y="554" width="30" height="12" fill="#B4C7E7"/><rect x="825" y="645" width="30" height="12" fill="#8497B0"/></g></svg>